<?xml version="1.0" encoding="utf-8"?>
<!-- Generator: Adobe Illustrator 17.1.0, SVG Export Plug-In . SVG Version: 6.00 Build 0)  -->
<!DOCTYPE svg PUBLIC "-//W3C//DTD SVG 1.1//EN" "http://www.w3.org/Graphics/SVG/1.1/DTD/svg11.dtd">
<svg version="1.1" id="Ebene_1" xmlns="http://www.w3.org/2000/svg" xmlns:xlink="http://www.w3.org/1999/xlink" x="0px" y="0px"
	 viewBox="0 0 281 168" enable-background="new 0 0 281 168" xml:space="preserve">
<g>
	<text transform="matrix(1 0 0 1 111.825 41.3659)"><tspan x="0" y="0" fill="#FFFFFF" font-family="'BrightonBoldPlain'" font-size="31.5028" letter-spacing="3">MI </tspan><tspan x="51.8" y="0" fill="#FFFFFF" font-family="'BrightonBoldPlain'" font-size="44.6179" letter-spacing="4"> </tspan><tspan x="-98.7" y="45.7" fill="#FFFFFF" font-family="'BrightonBoldPlain'" font-size="44.6179" letter-spacing="4">FLAMENCO</tspan></text>
	<g>
		<g>
			<path fill="#FFFFFF" d="M35.7,129.5H14.4c-1,0-1.8-0.8-1.8-1.8s0.8-1.8,1.8-1.8h21.3c1,0,1.8,0.8,1.8,1.8S36.7,129.5,35.7,129.5z
				"/>
		</g>
	</g>
	<g>
		<g>
			<path fill="#FFFFFF" d="M261.2,129.5h-21.3c-1,0-1.8-0.8-1.8-1.8s0.8-1.8,1.8-1.8h21.3c1,0,1.8,0.8,1.8,1.8
				S262.2,129.5,261.2,129.5z"/>
		</g>
	</g>
	
		<text transform="matrix(1 0 0 1 68.9656 138.3107)" fill="#FFFFFF" font-family="'BeverlyShoresScriptSGTT'" font-size="53.549" letter-spacing="-1">routes</text>
</g>
</svg>
