<?xml version="1.0" encoding="utf-8"?>
<!-- Generator: Adobe Illustrator 17.1.0, SVG Export Plug-In . SVG Version: 6.00 Build 0)  -->
<!DOCTYPE svg PUBLIC "-//W3C//DTD SVG 1.1//EN" "http://www.w3.org/Graphics/SVG/1.1/DTD/svg11.dtd">
<svg version="1.1" id="Ebene_1" xmlns="http://www.w3.org/2000/svg" xmlns:xlink="http://www.w3.org/1999/xlink" x="0px" y="0px"
	 viewBox="0 0 281 168" enable-background="new 0 0 281 168" xml:space="preserve">
<g>
	<g>
		<path fill="#FFFFFF" d="M128,21.2c0.5-0.8,0.6-0.9,1.3-0.9h3.4c1.1,0,1.4,0.2,1.4,0.9c0,0.5-0.3,0.8-0.8,0.9l-0.5,0.1
			c-0.6,0.1-0.7,0.3-0.7,1.6V38c0,1.3,0.1,1.5,0.7,1.6l0.5,0.1c0.6,0.1,0.8,0.4,0.8,0.9c0,0.7-0.4,0.9-1.5,0.9h-5.6
			c-1.1,0-1.5-0.2-1.5-0.9c0-0.5,0.3-0.8,0.8-0.9l0.5-0.1c0.6-0.1,0.7-0.3,0.7-1.6V26.6l-4.8,7.7c-0.3,0.5-0.7,0.7-1.1,0.7
			c-0.3,0-0.6-0.2-0.9-0.7l-5.3-7.8V38c0,1.3,0.1,1.5,0.7,1.6l0.6,0.1c0.5,0.1,0.8,0.4,0.8,0.9c0,0.7-0.4,0.9-1.5,0.9h-3.8
			c-1.1,0-1.5-0.2-1.5-0.9c0-0.5,0.3-0.8,0.8-0.9l0.5-0.1c0.6-0.1,0.7-0.3,0.7-1.6V23.8c0-1.3-0.1-1.5-0.7-1.6l-0.6-0.1
			c-0.5-0.1-0.8-0.3-0.8-0.9c0-0.7,0.3-0.9,1.4-0.9h3.1c0.7,0,0.8,0,1.3,0.9l5.7,8.5L128,21.2z"/>
		<path fill="#FFFFFF" d="M141.4,23.8c0-1.3-0.1-1.5-0.7-1.6l-0.5-0.1c-0.6-0.1-0.8-0.3-0.8-0.9c0-0.7,0.4-0.9,1.5-0.9h5.6
			c1.1,0,1.4,0.2,1.4,0.9c0,0.5-0.3,0.8-0.8,0.9l-0.6,0.1c-0.6,0.1-0.7,0.3-0.7,1.6v14.1c0,1.3,0.1,1.5,0.7,1.6l0.5,0.1
			c0.5,0.1,0.8,0.4,0.8,0.9c0,0.7-0.4,0.9-1.5,0.9h-5.6c-1.1,0-1.4-0.2-1.4-0.9c0-0.5,0.3-0.8,0.8-0.9l0.5-0.1
			c0.6-0.1,0.7-0.3,0.7-1.6V23.8z"/>
		<path fill="#FFFFFF" d="M27.4,68.7c1.2,0,1.9,0.5,1.9,1.6c0,1-0.7,1.6-2,1.6h-3.4c-2.1,0-2.1,0-2.1,1.5v8.9c0,1.8,0.2,2.2,1,2.3
			l1.1,0.1c0.7,0.1,1.2,0.5,1.2,1.2c0,0.9-0.5,1.2-2.1,1.2h-8.3c-1.6,0-2.1-0.3-2.1-1.2c0-0.7,0.4-1.1,1.1-1.2l0.8-0.1
			c0.9-0.1,1-0.4,1-2.3v-20c0-1.8-0.1-2.1-1-2.3l-0.7-0.1c-0.8-0.1-1.1-0.5-1.1-1.2c0-0.9,0.5-1.2,2.1-1.2h16.3
			c1.2,0,1.4,0.2,1.8,1.2l1.1,3c0.1,0.4,0.2,0.6,0.2,0.7c0,0.6-0.5,1.1-1.2,1.1c-0.5,0-0.8-0.3-1.3-0.9c-1.2-1.8-1.8-2.1-5.7-2.1
			c-4.1,0-4.1,0-4.2,1.8l0,1v5.6H27.4z"/>
		<path fill="#FFFFFF" d="M61.7,85.7c-0.5,1.2-0.8,1.3-2.2,1.3h-17c-1.6,0-2.1-0.3-2.1-1.2c0-0.7,0.4-1.1,1.2-1.2l0.7-0.1
			c0.9-0.1,1-0.4,1-2.3v-20c0-1.8-0.1-2.1-1-2.3l-0.8-0.1c-0.8-0.1-1.1-0.5-1.1-1.2c0-0.9,0.5-1.2,2.1-1.2h8.3
			c1.6,0,2.1,0.3,2.1,1.2c0,0.7-0.4,1.2-1.1,1.2l-1.1,0.1c-0.8,0.1-1,0.4-1,2.3v18.7c0,3.1,0,3.1,4.6,3.1c4.7,0,4.9,0,6.8-2.7
			c0.5-0.7,0.8-0.9,1.3-0.9c0.7,0,1.2,0.4,1.2,1c0,0.3-0.1,0.5-0.3,1.1L61.7,85.7z"/>
		<path fill="#FFFFFF" d="M93.1,81.7c0.7,2.1,0.9,2.4,2,2.7l0.6,0.2c0.5,0.2,0.8,0.6,0.8,1.2c0,0.9-0.6,1.3-1.6,1.3h-9.5
			c-0.8,0-1.3-0.4-1.3-1.2c0-0.8,0.5-1.2,1.7-1.3c1-0.1,1.4-0.4,1.4-1c0-0.4-0.1-0.8-0.2-1.2l-0.8-2.6c-0.4-1.4-0.6-1.6-1.8-1.6
			h-5.8c-1.3,0-1.4,0.1-1.9,1.6l-0.8,2.6c-0.2,0.6-0.3,1-0.3,1.2c0,0.6,0.4,0.9,1.3,1c1.2,0.1,1.6,0.4,1.6,1.2
			c0,0.8-0.6,1.2-1.5,1.2h-6.3c-1.1,0-1.5-0.4-1.5-1.2c0-0.7,0.4-1.2,1.2-1.2c1.2-0.2,1.4-0.4,2.1-2.5l7.6-22.6
			c0.4-1.3,0.7-1.8,0.9-2.1c0.4-0.6,1-0.9,1.8-0.9c1.3,0,2,0.7,2.8,3L93.1,81.7z M84.8,75.1l-3.3-10.5l-3.3,10.5H84.8z"/>
		<path fill="#FFFFFF" d="M127.3,58.5c0.7-1.1,0.8-1.2,1.8-1.2h4.9c1.6,0,2.1,0.3,2.1,1.2c0,0.7-0.4,1.1-1.1,1.2l-0.7,0.1
			c-0.9,0.1-1,0.4-1,2.3v20.1c0,1.9,0.1,2.1,1,2.3l0.7,0.1c0.8,0.1,1.2,0.5,1.2,1.2c0,0.9-0.5,1.2-2.1,1.2h-7.9
			c-1.6,0-2.1-0.3-2.1-1.2c0-0.7,0.4-1.1,1.2-1.2l0.7-0.1c0.9-0.1,1-0.4,1-2.3V66.2L120.1,77c-0.4,0.7-1,1-1.5,1
			c-0.5,0-0.8-0.2-1.3-1l-7.5-11.1v16.4c0,1.9,0.1,2.1,1,2.3l0.8,0.1c0.8,0.1,1.2,0.5,1.2,1.2c0,0.9-0.5,1.2-2.1,1.2h-5.4
			c-1.6,0-2.1-0.3-2.1-1.2c0-0.7,0.4-1.1,1.2-1.2l0.8-0.1c0.9-0.1,1-0.4,1-2.3V62.1c0-1.8-0.1-2.1-1-2.3l-0.8-0.1
			c-0.8-0.1-1.1-0.5-1.1-1.2c0-0.9,0.5-1.2,2.1-1.2h4.4c1,0,1.1,0,1.8,1.2l8.1,12L127.3,58.5z"/>
		<path fill="#FFFFFF" d="M158.1,68.7c1.4,0,2,0.4,2,1.5s-0.7,1.6-1.9,1.6h-3.4c-2.1,0-2.2,0-2.2,1.8v1.2v5.8c0,3.4,0,3.4,4.8,3.4
			c4.8,0,5.4-0.2,6.8-2.3c0.5-0.8,0.8-1,1.3-1c0.7,0,1.2,0.4,1.2,1.1c0,0.2-0.1,0.7-0.4,1.2l-1.3,3c-0.3,0.8-0.5,0.9-1.2,1l-0.8,0
			h-17.4c-1.6,0-2.1-0.3-2.1-1.2c0-0.7,0.4-1.1,1.1-1.2l0.7-0.1c0.9-0.1,1-0.4,1-2.3v-20c0-1.8-0.1-2.1-1-2.3l-0.8-0.1
			c-0.8-0.1-1.1-0.5-1.1-1.2c0-0.9,0.5-1.2,2.1-1.2h17.2c0.9,0,1.3,0.2,1.6,0.9l1.3,3.2c0.1,0.4,0.2,0.6,0.2,0.8
			c0,0.5-0.6,0.9-1.2,0.9c-0.6,0-0.8-0.1-1.6-1.3c-0.9-1.3-1.7-1.6-4.5-1.6h-3.1c-2.5,0-2.7,0.3-2.7,2.7v5.7H158.1z"/>
		<path fill="#FFFFFF" d="M194.5,62.1c0-1.8-0.1-2.1-1-2.3l-0.8-0.1c-0.8-0.1-1.2-0.5-1.2-1.2c0-0.9,0.5-1.2,2.1-1.2h5.3
			c1.6,0,2.1,0.3,2.1,1.2c0,0.7-0.4,1.1-1.1,1.2l-0.7,0.1c-0.9,0.1-1,0.4-1,2.3v24.7c0,0.4-0.3,0.8-0.8,0.8h-1.2
			c-1.2,0-1.3,0-1.3-1.2c-0.1-1.1-0.3-1.5-1.7-3.3l-13.3-17.2v16.3c0,1.9,0.1,2.1,1,2.3l0.8,0.1c0.8,0.1,1.1,0.5,1.1,1.2
			c0,0.9-0.5,1.2-2.1,1.2h-5.4c-1.6,0-2.1-0.3-2.1-1.2c0-0.7,0.4-1.1,1.2-1.2l0.7-0.1c0.9-0.1,1-0.4,1-2.3V60.9l-0.4-0.4
			c-0.4-0.4-0.5-0.5-1.6-0.8c-1.1-0.3-1.4-0.6-1.4-1.2c0-0.8,0.5-1.2,1.5-1.2h4.8c1,0,1.3,0.2,2,1l13.5,17.4V62.1z"/>
		<path fill="#FFFFFF" d="M231.2,62.4c0.1,0.3,0.1,0.6,0.1,0.8c0,0.7-0.6,1.2-1.3,1.2c-0.4,0-0.6-0.2-1-0.7l-0.8-1
			c-1.5-1.8-3.7-2.9-5.9-2.9c-1.8,0-3.5,0.7-4.6,1.9c-1.9,2.2-2.9,6-2.9,10.6c0,7.7,2.9,12.1,8.1,12.1c2.4,0,4.3-0.8,6.4-2.8
			c0.6-0.6,1-0.8,1.4-0.8c0.7,0,1.3,0.7,1.3,1.4c0,0.7-0.6,1.6-1.8,2.7c-2.1,1.9-5,2.9-8.4,2.9c-8.3,0-13.6-6.1-13.6-15.4
			c0-4.6,1.4-8.8,4-11.8c2.3-2.6,5.4-3.9,9.1-3.9c1.7,0,3,0.2,4.7,0.7c0.3,0.1,0.5,0.1,0.7,0.1c0.4,0,0.5-0.1,0.9-0.6
			c0.4-0.4,0.6-0.5,1.1-0.5c0.5,0,0.9,0.3,1.1,0.9L231.2,62.4z"/>
		<path fill="#FFFFFF" d="M253.6,56.7c8.9,0,14.7,6,14.7,15.4c0,9.5-5.8,15.7-14.8,15.7c-8.8,0-14.6-6.1-14.6-15.4
			C239,62.7,244.7,56.7,253.6,56.7z M253.7,84.5c4.9,0,8-4.8,8-12.3c0-7.6-3.1-12.4-8.1-12.4c-4.9,0-7.9,4.7-7.9,12.4
			C245.7,79.9,248.7,84.5,253.7,84.5z"/>
	</g>
	<g>
		<path fill="#FFFFFF" d="M38.4,129.5H17.1c-1,0-1.8-0.8-1.8-1.8s0.8-1.8,1.8-1.8h21.3c1,0,1.8,0.8,1.8,1.8S39.4,129.5,38.4,129.5z"
			/>
		<path fill="#FFFFFF" d="M263.9,129.5h-21.3c-1,0-1.8-0.8-1.8-1.8s0.8-1.8,1.8-1.8h21.3c1,0,1.8,0.8,1.8,1.8
			S264.9,129.5,263.9,129.5z"/>
	</g>
	<g>
		<path fill="#FFFFFF" d="M89.8,120.4c0,0.8-0.2,1.5-0.5,2.2s-0.8,1.3-1.3,1.8c-0.6,0.5-1.2,0.9-1.9,1.2c-0.7,0.3-1.4,0.5-2.2,0.5
			c-0.3,0-0.7,0-1-0.1c-0.4-0.1-0.7-0.2-1.1-0.4c-0.4-0.2-0.7-0.4-0.9-0.7c-0.2-0.3-0.3-0.6-0.3-1c0-0.4,0.1-0.8,0.4-1.2
			c0.3-0.3,0.6-0.6,1-0.8c0,0.3,0.2,0.6,0.4,0.8c0.2,0.2,0.5,0.3,0.9,0.3c0.4,0,0.7-0.2,1-0.5c0.3-0.3,0.5-0.7,0.5-1
			c0-0.6-0.2-1.1-0.7-1.4c-0.5-0.4-1-0.5-1.6-0.5c-0.2,0-0.5,0.1-0.8,0.2c-0.3,0.1-0.6,0.2-0.8,0.3c-1.2,0.4-2.2,1.1-3.1,1.9
			c-0.9,0.8-1.7,1.7-2.4,2.8c-1.4,2.2-2.7,4.4-3.9,6.7c-1.2,2.3-2.4,4.6-3.6,6.9h-5c1.6-3,3.2-6.1,4.8-9s3.3-6,5.1-8.9
			c0.2-0.3,0.3-0.5,0.5-0.8c0.1-0.2,0.2-0.5,0.3-0.7c0.1-0.2,0.1-0.4,0.1-0.7c0-0.2,0-0.6,0-0.9c0-0.2,0.2-0.3,0.5-0.3
			c0.3,0,0.5-0.1,0.6-0.1h3.6c0.2,0.2,0.3,0.6,0.3,0.9c0,0.3,0,0.5-0.1,0.6c0,0.1-0.1,0.3-0.3,0.6c0.1-0.1,0.1-0.1,0.2-0.1
			c0,0,0.1,0,0.2-0.1c0.2-0.1,0.4-0.3,0.5-0.5c0.2-0.2,0.4-0.3,0.5-0.5c1.7-1.2,3.5-1.9,5.6-1.9c1.2,0,2.3,0.4,3.2,1.2
			C89.4,118.1,89.8,119.1,89.8,120.4z"/>
		<path fill="#FFFFFF" d="M119,125.4c-1.2,0.4-2.5,0.8-3.9,1.1c-1.3,0.3-2.7,0.5-4,0.7c-1.3,0.2-2.5,0.3-3.6,0.4
			c-0.5,1.5-1.1,2.9-1.9,4.3c-0.8,1.4-1.7,2.6-2.8,3.6c-1.1,1.1-2.3,1.9-3.7,2.5c-1.4,0.6-2.9,1-4.6,1c-1,0-2-0.2-2.8-0.6
			s-1.5-1-2-1.6c-0.6-0.7-1-1.5-1.3-2.4c-0.3-0.9-0.4-1.8-0.4-2.8c0-1.2,0.2-2.4,0.6-3.7c0.4-1.2,1-2.4,1.7-3.6
			c0.7-1.2,1.6-2.2,2.5-3.3s2-1.9,3.1-2.7c1.1-0.7,2.3-1.3,3.5-1.8c1.2-0.4,2.5-0.7,3.7-0.7c1.8,0,3.2,0.4,4.1,1.3
			c0.9,0.8,1.4,2.2,1.4,4c0,0.6-0.1,1.2-0.2,1.8c-0.1,0.6-0.2,1.2-0.4,1.8c1-0.1,2.1-0.3,3.4-0.5s2.6-0.5,3.9-0.8
			c1.3-0.3,2.6-0.7,3.8-1.2c1.2-0.4,2.2-0.9,3-1.5v2.7C121.3,124.4,120.3,124.9,119,125.4z M104.4,127.4c-0.9,0-1.6-0.2-2.2-0.8
			c-0.6-0.5-1.1-1.1-1.4-1.9c-0.3-0.8-0.6-1.6-0.7-2.4c-0.1-0.9-0.1-1.7-0.1-2.4c-1,0.4-2,1-2.9,1.8c-0.9,0.8-1.6,1.7-2.2,2.7
			c-0.6,1-1.1,2.1-1.5,3.2c-0.4,1.1-0.5,2.2-0.5,3.3c0,0.5,0.1,1,0.2,1.5c0.1,0.5,0.3,1,0.5,1.4c0.2,0.4,0.6,0.8,1,1.1
			c0.4,0.3,0.9,0.4,1.5,0.4c1,0,2-0.3,2.9-0.8c0.9-0.5,1.7-1.2,2.4-2c0.7-0.8,1.3-1.7,1.8-2.6C103.7,129.3,104.1,128.3,104.4,127.4z
			 M105.3,121.6c0-0.2,0-0.5-0.1-0.8c-0.1-0.3-0.1-0.6-0.2-0.8c-0.1-0.2-0.3-0.5-0.5-0.6c-0.2-0.2-0.4-0.2-0.7-0.2
			c-0.5,0-0.8,0.2-0.9,0.6c-0.1,0.4-0.2,0.8-0.2,1.2c0,0.7,0.2,1.4,0.5,2.2c0.3,0.7,0.9,1.2,1.7,1.4
			C105.2,123.6,105.3,122.6,105.3,121.6z"/>
		<path fill="#FFFFFF" d="M143.5,132.4c-1.3,1.1-2.6,2.1-4,3c-1.4,0.9-2.8,1.7-4.3,2.4c-1.5,0.7-2.9,1-4.3,1c-1.4,0-2.3-0.3-2.8-1
			c-0.5-0.7-0.8-1.7-0.9-2.9c-1.4,1.1-3,2.1-4.6,2.8c-1.6,0.8-3.4,1.1-5.2,1.1c-1.2,0-2.2-0.4-2.8-1.3c-0.6-0.8-0.9-1.8-0.9-3
			c0-1,0.2-2.1,0.7-3.3c0.4-1.2,1-2.4,1.6-3.6s1.3-2.4,2-3.6c0.7-1.2,1.3-2.2,1.7-3.1c0.2-0.4,0.4-0.8,0.6-1.2
			c0.2-0.4,0.3-0.8,0.5-1.3c0.1-0.2,0.1-0.4,0.1-0.5c0-0.2,0-0.4,0.1-0.5c0.1-0.2,0.2-0.4,0.3-0.4s0.3,0,0.6,0h3.8
			c0.2,0.2,0.3,0.5,0.3,0.8c0,0.7-0.2,1.5-0.6,2.4c-0.4,0.9-0.8,1.8-1.4,2.8c-0.6,1-1.2,2-1.8,3c-0.7,1-1.3,2-1.8,2.9
			c-0.6,0.9-1,1.8-1.4,2.7c-0.4,0.8-0.6,1.6-0.6,2.2c0,0.4,0.1,0.7,0.4,1c0.3,0.3,0.6,0.4,1,0.4c0.6,0,1.3-0.2,2.1-0.5
			c0.8-0.3,1.5-0.7,2.3-1.2c0.8-0.5,1.5-1,2.2-1.5c0.7-0.5,1.3-1,1.7-1.3c0.3-0.6,0.8-1.5,1.4-2.7c0.7-1.2,1.3-2.4,2-3.7
			c0.7-1.3,1.3-2.4,1.9-3.5c0.6-1.1,0.9-1.8,1-2.3c0.1-0.2,0.1-0.5,0.1-0.6c0-0.2,0-0.3,0.1-0.5c0.1-0.1,0.2-0.2,0.3-0.3
			c0.1-0.1,0.4-0.1,0.7-0.1h3.7c0.1,0.1,0.2,0.3,0.2,0.5c0.1,0.2,0.1,0.4,0.1,0.6c0,0.5-0.2,1.2-0.6,2.1c-0.4,0.8-0.9,1.8-1.4,2.8
			c-0.6,1-1.2,2-1.9,3.1c-0.7,1.1-1.3,2.1-1.9,3.1c-0.6,1-1.1,1.9-1.4,2.7s-0.6,1.5-0.6,2c0,0.4,0.2,0.8,0.5,1
			c0.4,0.2,0.7,0.4,1.1,0.4c0.4,0,1-0.2,1.7-0.5c0.7-0.4,1.5-0.8,2.4-1.4c0.9-0.6,1.8-1.2,2.8-1.9c1-0.7,1.9-1.4,2.7-2
			c0.9-0.7,1.6-1.3,2.4-1.8c0.7-0.6,1.3-1,1.7-1.3v3.6C145.9,130.4,144.7,131.3,143.5,132.4z"/>
		<path fill="#FFFFFF" d="M163.7,132c-1.6,1.3-3.2,2.5-4.9,3.5c-1.7,1.1-3.3,1.9-5,2.6c-1.7,0.7-3.4,1-5,1c-2.8,0-4.7-0.4-5.9-1.1
			c-1.1-0.7-1.6-2.1-1.4-4c0.1-1,0.4-2.1,0.9-3.3c0.5-1.2,1.1-2.5,1.8-3.7c0.7-1.3,1.3-2.5,2.1-3.7c0.7-1.2,1.3-2.3,1.8-3.2h-3.6
			l2-3.2h3.4c1.2-1.9,2.3-3.8,3.3-5.8c1-2,2.1-3.9,3.4-5.7l5.4-0.8c-0.8,1-1.4,2-2,3c-0.6,1-1.2,2-1.7,3c-0.6,1-1.1,2-1.7,3.1
			c-0.6,1-1.2,2.1-1.8,3.1h9.1l-1.4,3.2h-9c-1,1.8-2,3.4-2.8,4.9c-0.4,0.6-0.7,1.3-1.1,1.9s-0.7,1.2-1,1.8c-0.3,0.6-0.6,1-0.8,1.5
			s-0.3,0.8-0.4,1c-0.4,1.7-0.2,2.8,0.5,3.4c0.8,0.6,2.1,0.9,3.9,0.9c0.9,0,2.1-0.4,3.5-1.1c1.4-0.7,2.8-1.6,4.4-2.7
			c1.5-1.1,3.1-2.2,4.6-3.5c1.5-1.2,2.9-2.3,4.2-3.3v3.4C166.8,129.5,165.3,130.8,163.7,132z"/>
		<path fill="#FFFFFF" d="M188.7,131.1c-0.7,0.5-1.4,1.1-2,1.7c-0.4,0.4-0.8,0.7-1.3,1.1c-0.4,0.4-0.8,0.7-1.3,1
			c-1.8,1.4-3.7,2.4-5.7,3.2c-2,0.7-4.1,1.1-6.3,1.1c-1.2,0-2.4-0.1-3.6-0.3c-1.2-0.2-2.3-0.6-3.3-1.1c-1-0.6-1.8-1.3-2.4-2.3
			c-0.6-1-0.9-2.3-0.9-3.9c0-2,0.5-3.9,1.5-5.8c1-1.9,2.2-3.5,3.7-4.9c1.5-1.4,3.2-2.6,5.1-3.4c1.9-0.9,3.7-1.3,5.5-1.3
			c0.7,0,1.3,0.1,2,0.4c0.6,0.2,1.2,0.6,1.7,1c0.5,0.4,0.9,1,1.2,1.6c0.3,0.6,0.4,1.3,0.4,2.1c0,1.7-0.5,3.1-1.5,4.3
			c-1,1.2-2.2,2.2-3.7,2.9c-1.4,0.8-3,1.3-4.6,1.7c-1.6,0.4-3.1,0.5-4.3,0.5c-0.7,0-1.3-0.1-2-0.2c0,0.2-0.1,0.4-0.1,0.5
			c0,0.2,0,0.4,0,0.5c0,0.9,0.2,1.7,0.6,2.2c0.4,0.6,0.9,1,1.4,1.3c0.6,0.3,1.2,0.5,2,0.6c0.7,0.1,1.4,0.2,2.1,0.2
			c1.5,0,3.1-0.3,4.8-1c1.6-0.6,3.2-1.4,4.8-2.4c1.6-1,3.1-2,4.5-3.2c1.4-1.1,2.7-2.2,3.8-3.2v3.3C190,130,189.3,130.5,188.7,131.1z
			 M179.2,121.3c0-1.5-0.7-2.2-2.1-2.2c-0.5,0-1,0.1-1.7,0.2c-0.7,0.2-1.2,0.3-1.6,0.6c-1.6,0.8-3,1.8-4,3.1c-1,1.2-1.9,2.7-2.5,4.4
			c0.3,0,0.6,0.1,0.8,0.1c0.3,0,0.5,0.1,0.8,0.1c0.6,0,1.3-0.1,2-0.2c0.7-0.1,1.5-0.3,2.2-0.5c0.7-0.2,1.4-0.4,2.1-0.8
			c0.7-0.3,1.2-0.7,1.7-1c0.5-0.5,1-1,1.5-1.7C178.9,122.7,179.2,122,179.2,121.3z"/>
		<path fill="#FFFFFF" d="M211.6,133.3c-1.4,1.2-2.9,2.2-4.5,3.1s-3.2,1.6-5,2.1c-1.7,0.5-3.7,0.7-6,0.7c-0.9,0-1.9,0-3-0.1
			c-1.1-0.1-2.2-0.2-3.2-0.5c-1-0.3-1.8-0.8-2.5-1.4c-0.7-0.7-1-1.6-1-2.8c0-1.2,0.4-2.2,1.3-3.1c0.8-0.8,1.9-1.3,3.1-1.3
			c0.6,0,1.1,0.2,1.4,0.5c0.4,0.4,0.6,0.8,0.6,1.4c-0.2-0.1-0.3-0.1-0.5-0.1s-0.3,0-0.5,0c-0.3,0-0.6,0.1-0.8,0.3
			c-0.2,0.2-0.4,0.5-0.4,0.8c0,0.8,0.3,1.4,0.8,1.8c0.5,0.4,1.2,0.6,2,0.6c1.5,0,2.6-0.3,3.3-0.9s1.3-1.4,1.6-2.3
			c0.3-0.9,0.6-2,0.6-3.2c0.1-1.2,0.2-2.3,0.3-3.5c0.1-1.2,0.4-2.3,0.7-3.3c0.3-1.1,0.9-1.9,1.8-2.6l-0.2-0.2
			c-0.9,0.1-1.7,0.4-2.5,0.9c-0.8,0.5-1.6,1.2-2.3,1.9c-0.7,0.7-1.5,1.4-2.1,2.2c-0.7,0.7-1.3,1.4-1.9,1.9c-1.2,1-2.4,2.1-3.7,3.1
			c-1.2,1-2.5,2.1-3.7,3.1v-3.5c0.8-0.7,1.7-1.3,2.5-2c0.9-0.6,1.7-1.3,2.5-2c1-0.8,2-1.8,3-2.8c1-1.1,2-2,3-2.9s2.2-1.7,3.3-2.3
			c1.2-0.6,2.5-0.9,4-0.9c0.4,0,0.9,0,1.4,0.1c0.6,0.1,1.1,0.2,1.7,0.3c0.5,0.2,1,0.4,1.4,0.7s0.6,0.7,0.6,1.2
			c0,0.5-0.1,0.9-0.3,1.2s-0.4,0.5-0.7,0.7c-0.3,0.2-0.6,0.3-1,0.3s-0.8,0.1-1.2,0.1c-0.5,0-1,0.1-1.3,0.4c-0.3,0.2-0.5,0.6-0.7,0.9
			c-0.2,0.4-0.3,0.8-0.3,1.3c0,0.5-0.1,0.9-0.1,1.3c0,0.6,0,1.2,0.1,1.7c0.1,0.6,0.1,1.1,0.1,1.7c0,0.5,0,1.1-0.1,1.8
			c0,0.7-0.1,1.4-0.2,2.1c-0.1,0.7-0.2,1.4-0.4,2c-0.2,0.6-0.5,1.2-0.8,1.6c0.3,0,0.6-0.1,0.9-0.2c0.3-0.2,0.5-0.3,0.8-0.4
			c1.8-0.7,3.5-1.7,5.1-2.9c1.6-1.2,3.1-2.3,4.6-3.6c0.4-0.4,0.9-0.7,1.3-1.1s0.9-0.7,1.4-1v3.4C214.6,130.8,213,132.1,211.6,133.3z
			"/>
	</g>
</g>
</svg>
